<svg width="288" height="76" xmlns="http://www.w3.org/2000/svg" xmlns:xlink="http://www.w3.org/1999/xlink" overflow="hidden"><defs><clipPath id="clip0"><rect x="954" y="24" width="288" height="76"/></clipPath></defs><g clip-path="url(#clip0)" transform="translate(-954 -24)"><path d="M76.3711 57.075C74.5968 57.075 73.0073 56.077 72.231 54.4874L62.5829 34.3411 52.9349 54.4874C52.1586 56.077 50.5691 57.075 48.7947 57.075L48.7947 57.075C47.0204 57.075 45.4308 56.077 44.6546 54.4874L35.0065 34.3411 28.5005 47.9445 32.8994 47.9445C35.4131 47.9445 37.4832 50.0146 37.4832 52.5283 37.4832 55.0419 35.4131 57.112 32.8994 57.112L21.2552 57.112C19.6657 57.112 18.2241 56.2988 17.3738 54.968 16.5236 53.6372 16.4497 51.9738 17.1151 50.5321L30.9033 21.7358C31.6796 20.1463 33.2691 19.1482 35.0435 19.1482L35.0435 19.1482C36.8178 19.1482 38.4073 20.1463 39.1836 21.7358L48.8317 41.8821 58.4797 21.7358C59.256 20.1463 60.8455 19.1482 62.6199 19.1482L62.6199 19.1482C64.3942 19.1482 65.9838 20.1463 66.7601 21.7358L76.4081 41.8821 86.0562 21.7358C87.1651 19.4439 89.9006 18.4828 92.1555 19.5918 94.4474 20.7008 95.4085 23.4362 94.2995 25.6911L80.5113 54.4874C79.735 56.077 78.1455 57.075 76.3711 57.075Z" fill="#EE7100" transform="matrix(0.999999 -0 -0 1.00277 953.999 24.0975)"/><path d="M270.071 47.0204C270.071 43.9892 268.777 42.1039 265.82 42.1039 262.863 42.1039 263.639 42.5475 263.122 43.0281L263.122 42.3257 260.09 42.3257 260.09 53.0458 263.122 53.0458 263.122 47.1682C263.122 45.3199 263.861 44.7285 265.081 44.7285 266.301 44.7285 267.04 45.283 267.04 47.2052L267.04 53.0088 270.071 53.0088 270.071 46.9464ZM250.849 46.5028C250.96 45.4308 251.625 44.5806 252.734 44.5806 253.843 44.5806 254.693 45.5417 254.804 46.5028L250.849 46.5028ZM252.882 42.1409C249.962 42.1409 247.781 44.4328 247.781 47.7597 247.781 51.0866 249.888 53.3415 253.178 53.3415 256.468 53.3415 256.357 52.7131 257.281 51.6041L255.137 49.9407C254.693 50.4212 253.991 50.68 253.178 50.68 252.365 50.68 250.923 50.1255 250.812 48.6469L257.688 48.6469C257.688 48.4251 257.725 48.1663 257.725 47.7597 257.725 44.6915 255.95 42.1409 252.882 42.1409M245.378 38.1855 242.347 39.5902 242.347 42.9541C241.792 42.4736 240.942 42.1039 239.907 42.1039 237.061 42.1039 235.434 44.3588 235.434 47.5748 235.434 50.7909 237.43 53.3045 239.907 53.3045 242.384 53.3045 241.755 52.8609 242.347 52.4174L242.347 53.0827 245.378 53.0827 245.378 38.1855ZM240.499 50.643C239.316 50.643 238.539 49.7189 238.539 47.5009 238.539 45.283 239.168 44.7654 240.351 44.7654 241.534 44.7654 241.94 45.0981 242.384 45.6896L242.384 49.7558C241.94 50.2733 241.46 50.643 240.535 50.643M233.031 42.3627 230 42.3627 230 53.0827 233.031 53.0827 233.031 42.3627ZM231.516 38.2595C230.592 38.2595 229.778 38.9988 229.778 39.886 229.778 40.7731 230.555 41.5125 231.516 41.5125 232.477 41.5125 233.253 40.7731 233.253 39.886 233.253 38.9988 232.477 38.2595 231.516 38.2595M220.648 46.5028C220.759 45.4308 221.424 44.5806 222.533 44.5806 223.642 44.5806 224.492 45.5417 224.603 46.5028L220.648 46.5028ZM222.681 42.1409C219.761 42.1409 217.58 44.4328 217.58 47.7597 217.58 51.0866 219.687 53.3415 222.977 53.3415 226.267 53.3415 226.156 52.7131 227.08 51.6041L224.936 49.9407C224.492 50.4212 223.79 50.68 222.977 50.68 222.164 50.68 220.722 50.1255 220.611 48.6469L227.487 48.6469C227.487 48.4251 227.524 48.1663 227.524 47.7597 227.524 44.6915 225.749 42.1409 222.681 42.1409M213.477 38.777 212.146 45.7635C211.998 46.4289 211.85 47.5379 211.776 48.1293 211.665 47.5379 211.443 46.4659 211.259 45.7635L209.447 38.777 206.786 38.777 204.974 45.7635C204.79 46.4659 204.568 47.5379 204.457 48.1293 204.383 47.5379 204.198 46.4659 204.087 45.7635L202.757 38.777 199.577 38.777 202.757 53.0827 205.64 53.0827 207.562 45.7266C207.784 44.8763 208.006 43.8043 208.08 43.2868 208.154 43.8043 208.375 44.8763 208.597 45.7266L210.482 53.0827 213.477 53.0827 216.656 38.777 213.514 38.777ZM198.099 47.2422 193.108 47.2422 193.108 49.8667 198.099 49.8667 198.099 47.2422ZM186.159 50.643C184.976 50.643 184.2 49.7189 184.2 47.5009 184.2 45.283 184.828 44.7654 186.011 44.7654 187.194 44.7654 187.601 45.0981 188.044 45.6896L188.044 49.7558C187.601 50.2733 187.12 50.643 186.196 50.643M191.038 42.3627 188.007 42.3627 188.007 42.9911C187.453 42.5105 186.602 42.1409 185.567 42.1409 182.721 42.1409 181.095 44.3958 181.095 47.6118 181.095 50.8278 183.091 53.3415 185.567 53.3415 188.044 53.3415 187.416 52.8979 188.007 52.4543 188.007 54.1178 187.379 54.6353 185.013 54.931L186.085 57.075C190.114 56.6684 191.038 54.8571 191.038 51.3084L191.038 42.3996ZM178.063 42.1409C176.991 42.1409 176.215 42.5845 175.698 43.065L175.698 42.3627 172.666 42.3627 172.666 53.0827 175.698 53.0827 175.698 47.2791C175.698 45.4308 176.474 44.9503 177.657 44.9503 178.84 44.9503 178.914 45.246 179.394 45.6526L180.17 42.8802C179.764 42.4736 179.025 42.1409 178.063 42.1409M163.425 46.5028C163.536 45.4308 164.201 44.5806 165.31 44.5806 166.419 44.5806 167.269 45.5417 167.38 46.5028L163.425 46.5028ZM165.458 42.1409C162.538 42.1409 160.357 44.4328 160.357 47.7597 160.357 51.0866 162.464 53.3415 165.754 53.3415 169.044 53.3415 168.933 52.7131 169.857 51.6041L167.713 49.9407C167.269 50.4212 166.567 50.68 165.754 50.68 164.941 50.68 163.499 50.1255 163.388 48.6469L170.264 48.6469C170.264 48.4251 170.301 48.1663 170.301 47.7597 170.301 44.6915 168.526 42.1409 165.458 42.1409M153.703 50.643C152.816 50.643 152.113 50.3103 151.67 49.7189L151.67 45.6896C152.113 45.1721 152.594 44.8024 153.518 44.8024 154.442 44.8024 155.477 45.7266 155.477 47.9445 155.477 50.1624 154.849 50.68 153.666 50.68M154.073 42.1409C152.964 42.1409 152.224 42.5845 151.633 43.0281L151.633 38.1855 148.602 39.5902 148.602 53.0827 151.633 53.0827 151.633 52.4543C152.187 52.9349 153.038 53.3045 154.073 53.3045 156.919 53.3045 158.546 51.0496 158.546 47.8336 158.546 44.6176 156.549 42.1039 154.073 42.1039M145.829 47.0204C145.829 43.9892 144.683 42.1039 141.726 42.1039 138.769 42.1039 138.843 42.7323 138.066 43.4716 137.216 42.4736 136.366 42.1039 134.887 42.1039 133.409 42.1039 132.891 42.5475 132.374 43.0281L132.374 42.3257 129.343 42.3257 129.343 53.0458 132.374 53.0458 132.374 47.1682C132.374 45.3199 133.002 44.7285 134.222 44.7285 135.442 44.7285 136.07 45.283 136.07 47.2052L136.07 53.0088 139.102 53.0088 139.102 47.1313C139.102 45.283 139.73 44.6915 140.95 44.6915 142.17 44.6915 142.798 45.246 142.798 47.1682L142.798 52.9718 145.829 52.9718 145.829 46.9095ZM121.21 38.777 118.253 38.777 112.375 53.0827 115.665 53.0827 116.885 49.9037 122.467 49.9037 123.687 53.0827 127.051 53.0827 121.247 38.777ZM117.92 47.1682 118.918 44.5806C119.214 43.7304 119.547 42.8802 119.695 42.3627 119.842 42.8802 120.138 43.7674 120.471 44.5806L121.469 47.1682 117.957 47.1682Z" fill="#54565A" transform="matrix(0.999999 -0 -0 1.00277 953.999 24.0975)"/><path d="M153.37 19.1482 150.302 19.1482 150.302 24.6191 144.018 24.6191 144.018 19.1482 140.95 19.1482 140.95 33.4539 144.018 33.4539 144.018 27.4285 150.302 27.4285 150.302 33.4539 153.37 33.4539 153.37 19.1482ZM138.88 19.1482 127.014 19.1482 127.014 21.9576 131.413 21.9576 131.413 33.4539 134.481 33.4539 134.481 21.9576 138.88 21.9576 138.88 19.1482ZM119.399 30.8663C117.255 30.8663 115.776 29.2029 115.776 26.3195 115.776 23.4362 117.181 21.8097 119.325 21.8097 121.469 21.8097 122.948 23.4732 122.948 26.3565 122.948 29.2398 121.543 30.8663 119.399 30.8663M119.399 18.9264C115.407 18.9264 112.634 21.6988 112.634 26.3195 112.634 30.9403 115.37 33.6757 119.362 33.6757 123.354 33.6757 126.127 30.9033 126.127 26.2826 126.127 21.6619 123.391 18.9264 119.399 18.9264" fill="#54565A" transform="matrix(0.999999 -0 -0 1.00277 953.999 24.0975)"/></g></svg>